<?xml version="1.0" standalone="no"?>
<!DOCTYPE svg PUBLIC "-//W3C//DTD SVG 20010904//EN"
 "http://www.w3.org/TR/2001/REC-SVG-20010904/DTD/svg10.dtd">
<svg version="1.0" xmlns="http://www.w3.org/2000/svg"
 width="969.000000pt" height="316.000000pt" viewBox="0 0 969.000000 316.000000"
 preserveAspectRatio="xMidYMid meet">

<g transform="translate(0.000000,316.000000) scale(0.100000,-0.100000)"
fill="#000000" stroke="none">
<path d="M6121 2713 c-22 -101 -19 -96 -48 -73 -43 34 -121 23 -172 -23 -51
-47 -78 -157 -51 -208 28 -52 111 -61 172 -18 l31 23 -5 -22 c-5 -19 -2 -22
26 -22 l33 0 43 188 c23 103 45 193 47 200 4 8 -6 12 -29 12 -34 0 -35 -1 -47
-57z m-66 -128 c14 -13 25 -33 25 -44 0 -59 -54 -121 -105 -121 -49 0 -70 21
-69 69 2 50 26 88 67 106 44 20 54 18 82 -10z"/>
<path d="M2914 2750 c-71 -15 -124 -71 -124 -132 0 -39 21 -57 100 -86 87 -32
100 -55 53 -92 -34 -27 -96 -23 -141 8 l-29 21 -24 -25 c-25 -27 -25 -28 31
-58 72 -39 170 -26 219 29 60 69 46 135 -35 163 -88 31 -104 41 -104 67 0 17
9 29 30 40 38 20 58 19 104 -5 l39 -19 18 22 c23 28 23 30 -1 45 -29 18 -99
29 -136 22z"/>
<path d="M3101 2564 c-36 -160 -26 -199 52 -199 32 0 55 7 77 24 31 22 32 23
25 2 -6 -18 -2 -21 27 -21 l33 0 28 123 c15 67 30 131 33 143 5 18 2 20 -29
16 l-35 -4 -18 -86 c-20 -95 -51 -142 -96 -142 -50 0 -59 38 -33 145 20 80 19
82 -14 87 -28 4 -29 4 -50 -88z"/>
<path d="M3554 2650 c-12 -5 -25 -13 -29 -19 -9 -16 -25 -13 -25 4 0 10 -10
15 -30 15 -22 0 -31 -5 -35 -22 -45 -191 -75 -325 -75 -335 0 -8 13 -13 30
-13 24 0 31 5 36 28 23 104 23 103 44 82 87 -87 256 43 237 182 -10 73 -79
108 -153 78z m73 -63 c12 -12 16 -35 14 -75 0 -13 -16 -39 -35 -58 -40 -40
-92 -46 -121 -14 -36 40 0 135 60 161 24 10 65 3 82 -14z"/>
<path d="M3845 2646 c-60 -27 -115 -110 -115 -173 0 -98 118 -142 218 -81 31
19 32 22 17 38 -15 16 -18 16 -55 -2 -30 -15 -46 -18 -67 -11 -28 9 -56 49
-47 65 3 4 52 8 109 8 112 0 115 2 115 61 0 89 -85 135 -175 95z m88 -48 c9
-7 19 -25 23 -40 l6 -28 -76 0 c-48 0 -76 4 -76 11 0 6 13 24 29 40 31 31 67
37 94 17z"/>
<path d="M4186 2635 c-34 -23 -36 -23 -36 -5 0 15 -7 20 -29 20 -29 0 -30 -1
-54 -107 -44 -192 -44 -175 -6 -171 31 3 33 5 50 78 14 61 23 80 53 107 21 19
46 33 61 33 14 0 25 6 25 13 0 6 3 22 6 35 9 31 -22 30 -70 -3z"/>
<path d="M4324 2653 c-31 -4 -31 -4 -58 -126 -15 -67 -30 -130 -32 -139 -4
-15 1 -18 28 -18 33 0 34 1 46 58 29 139 49 172 102 172 48 0 54 -26 30 -126
-11 -47 -20 -90 -20 -95 0 -5 13 -9 30 -9 32 0 35 6 60 127 16 75 43 105 89
101 34 -3 36 -5 39 -39 2 -20 -6 -71 -16 -113 l-20 -76 33 0 33 0 22 93 c28
119 28 156 0 179 -31 25 -90 23 -132 -5 l-34 -24 -17 24 c-23 30 -83 32 -120
3 -14 -11 -28 -20 -32 -20 -3 0 -3 9 0 20 3 11 5 19 3 18 -2 0 -17 -3 -34 -5z"/>
<path d="M4828 2631 c-108 -69 -119 -219 -18 -261 64 -26 194 24 162 63 -11
13 -17 12 -49 -4 -49 -25 -69 -24 -98 6 -48 47 -37 55 84 55 l109 0 6 30 c23
119 -86 181 -196 111z m116 -37 c9 -8 16 -26 16 -40 0 -23 -2 -24 -75 -24 -72
0 -75 1 -65 19 28 52 93 76 124 45z"/>
<path d="M5070 2527 c-16 -71 -30 -135 -30 -143 0 -9 11 -14 29 -14 27 0 30 4
45 66 28 110 46 133 127 157 21 7 31 67 12 67 -19 0 -53 -18 -81 -43 l-22 -21
6 30 c5 27 3 29 -25 29 l-30 0 -31 -128z"/>
<path d="M5359 2640 c-109 -57 -144 -196 -66 -254 40 -30 120 -28 171 3 35 22
36 24 20 42 -15 17 -19 17 -45 4 -15 -8 -41 -15 -57 -15 -87 0 -81 134 7 176
34 16 37 16 73 -3 l37 -21 21 23 21 23 -27 21 c-34 27 -105 27 -155 1z"/>
<path d="M5627 2648 c-27 -7 -37 -15 -33 -25 3 -8 6 -19 6 -24 0 -5 20 -6 44
-3 56 8 92 -1 98 -23 9 -33 -1 -38 -69 -35 -86 4 -126 -18 -144 -76 -14 -47
-1 -78 37 -92 38 -15 66 -12 108 9 29 15 36 16 32 5 -4 -10 3 -14 28 -14 34 0
34 0 50 73 29 125 31 159 9 186 -16 19 -31 25 -74 27 -30 2 -71 -2 -92 -8z
m92 -157 c32 -21 -25 -81 -78 -81 -53 0 -71 45 -29 74 24 17 85 21 107 7z"/>
<path d="M6295 2641 c-48 -22 -79 -54 -100 -103 -30 -72 -9 -139 50 -164 68
-28 145 -6 202 59 89 101 47 227 -74 227 -21 0 -56 -9 -78 -19z m118 -63 c47
-55 -14 -158 -94 -158 -71 0 -94 79 -42 140 45 54 99 61 136 18z"/>
<path d="M1494 2208 c-54 -84 -133 -206 -176 -272 -44 -65 -72 -116 -64 -113
8 3 31 9 51 13 31 5 34 8 23 23 -12 14 -11 14 4 2 10 -7 27 -11 39 -8 16 4 19
2 14 -11 -4 -9 -8 -22 -8 -29 0 -7 -3 -11 -6 -9 -5 3 -310 -456 -307 -461 1
-1 46 9 100 23 54 14 102 24 107 22 5 -2 -4 -25 -20 -51 -17 -26 -28 -47 -24
-47 4 0 0 -6 -9 -13 -9 -6 -68 -92 -132 -190 l-116 -178 38 7 c20 4 38 10 40
15 2 4 9 6 15 4 15 -5 520 109 513 116 -3 3 139 -28 316 -68 177 -40 323 -71
325 -69 2 2 -64 108 -147 236 -83 127 -149 234 -147 236 3 3 49 -6 103 -20 54
-14 100 -23 102 -21 2 1 -69 114 -158 250 -88 136 -158 250 -156 253 3 2 33
-2 68 -11 34 -9 64 -14 66 -13 4 5 -342 536 -349 536 -3 0 -50 -69 -105 -152z
m-57 -133 c0 -8 -4 -12 -9 -9 -5 3 -6 10 -3 15 9 13 12 11 12 -6z m-35 -72
c-6 -2 -10 -9 -6 -14 3 -5 0 -9 -6 -9 -6 0 -8 -6 -4 -12 4 -8 3 -10 -2 -5 -19
18 -5 48 21 46 6 0 4 -3 -3 -6z m-51 -90 c13 -16 12 -17 -3 -4 -10 7 -18 15
-18 17 0 8 8 3 21 -13z m-41 -59 c0 -8 -19 -13 -24 -6 -3 5 1 9 9 9 8 0 15 -2
15 -3z m44 -135 c-3 -5 -10 -7 -15 -3 -5 3 -7 10 -3 15 3 5 10 7 15 3 5 -3 7
-10 3 -15z m-4 -29 c0 -4 -8 -14 -17 -21 -16 -12 -17 -12 -6 2 10 12 10 18 0
28 -9 10 -8 11 6 6 9 -4 17 -11 17 -15z m-43 -29 c0 -11 -5 -18 -9 -15 -4 3
-5 11 -1 19 7 21 12 19 10 -4z m44 -14 c-10 -9 -11 -8 -5 6 3 10 9 15 12 12 3
-3 0 -11 -7 -18z m-87 -52 c-4 -8 -11 -15 -16 -15 -6 0 -5 6 2 15 7 8 14 15
16 15 2 0 1 -7 -2 -15z m-68 -167 c0 -10 -1 -18 -3 -18 -1 0 -7 8 -12 18 -7
13 -6 19 2 19 7 0 13 -9 13 -19z m-16 -312 c0 -2 -8 -10 -17 -17 -16 -13 -17
-12 -4 4 13 16 21 21 21 13z m-65 -65 c-9 -8 -36 -10 -30 -2 2 4 11 8 20 8 8
0 13 -3 10 -6z m325 5 c0 -2 -7 -7 -16 -10 -8 -3 -12 -2 -9 4 6 10 25 14 25 6z
m-406 -112 c3 -8 2 -12 -4 -9 -6 3 -10 10 -10 16 0 14 7 11 14 -7z"/>
<path d="M2691 2216 c-17 -20 -32 -89 -80 -361 -22 -126 -67 -383 -101 -570
-64 -363 -67 -387 -47 -403 20 -17 284 -3 299 16 7 8 26 91 43 186 l30 171
195 6 c133 4 214 12 255 23 254 70 388 266 389 571 1 94 -2 117 -22 160 -43
94 -121 154 -248 191 -86 25 -693 34 -713 10z m560 -277 c78 -27 105 -83 88
-188 -17 -106 -56 -164 -134 -197 -54 -23 -328 -34 -321 -13 3 8 19 95 36 194
17 99 33 188 36 198 5 15 20 17 133 17 70 0 143 -5 162 -11z"/>
<path d="M3838 2223 c-19 -5 -31 -38 -49 -132 -17 -88 -11 -91 148 -91 150 0
154 2 173 115 19 111 20 110 -131 111 -68 1 -132 0 -141 -3z"/>
<path d="M5277 2216 c-8 -9 -20 -46 -26 -83 -7 -37 -57 -322 -112 -632 -55
-310 -99 -576 -97 -590 l3 -26 142 -3 c128 -2 143 -1 151 15 6 10 31 140 56
288 54 308 64 346 108 399 81 98 252 102 285 6 15 -42 15 -39 -48 -399 -28
-155 -48 -289 -45 -297 8 -20 278 -20 295 -1 6 8 36 155 67 328 70 385 75 472
30 562 -48 99 -152 146 -301 134 -95 -7 -173 -39 -235 -94 -45 -40 -50 -43
-46 -22 20 90 66 378 64 399 l-3 25 -137 3 c-110 2 -139 0 -151 -12z"/>
<path d="M7326 2217 c-18 -13 -46 -110 -46 -162 0 -17 5 -36 12 -43 13 -13
255 -17 274 -4 18 12 31 44 38 97 4 28 10 59 12 71 11 44 -17 54 -150 54 -84
0 -128 -4 -140 -13z"/>
<path d="M4665 1906 c-67 -17 -120 -45 -178 -96 l-48 -43 6 49 c9 73 1 78
-110 82 -114 5 -162 -3 -174 -26 -15 -29 -175 -957 -168 -975 6 -15 25 -17
147 -17 136 0 141 1 150 23 5 12 32 150 60 305 53 299 65 339 108 386 77 82
235 88 271 10 19 -42 13 -99 -40 -400 -29 -161 -49 -299 -46 -308 5 -14 27
-16 145 -16 100 0 142 4 150 13 5 6 36 156 68 332 69 382 74 466 32 557 -21
44 -37 64 -73 87 -78 49 -193 64 -300 37z"/>
<path d="M6565 1903 c-94 -20 -198 -76 -265 -143 -161 -161 -234 -488 -150
-677 43 -98 156 -181 290 -214 89 -22 280 -17 373 9 89 25 175 66 183 87 10
25 -17 154 -33 163 -10 6 -46 -2 -102 -21 -74 -27 -100 -31 -191 -31 -84 -1
-112 3 -140 18 -73 38 -110 89 -110 151 l0 35 323 0 c296 0 325 2 340 18 8 9
23 58 32 107 51 267 -53 452 -282 500 -85 18 -178 18 -268 -2z m215 -221 c59
-31 94 -124 74 -199 -6 -23 -7 -23 -210 -23 -157 0 -204 3 -204 13 0 27 60
134 93 165 63 61 177 81 247 44z"/>
<path d="M8670 1904 c-251 -54 -413 -256 -450 -563 -31 -249 77 -418 300 -471
71 -17 229 -17 300 0 79 18 167 61 226 108 176 140 274 493 195 703 -70 184
-313 279 -571 223z m160 -243 c58 -30 75 -71 74 -176 -1 -228 -105 -388 -253
-388 -110 0 -160 57 -161 181 0 70 23 184 50 248 54 125 190 189 290 135z"/>
<path d="M8171 1894 c-69 -18 -112 -45 -183 -112 l-57 -54 6 72 c8 96 3 100
-138 100 -87 0 -111 -3 -127 -17 -18 -15 -33 -87 -106 -497 -63 -356 -83 -483
-75 -493 9 -10 46 -13 145 -13 128 0 134 1 147 23 8 12 33 130 56 262 24 132
51 258 60 281 47 107 138 164 263 164 52 0 81 4 90 14 16 16 54 246 45 270 -8
20 -52 20 -126 0z"/>
<path d="M3772 1883 c-17 -15 -33 -91 -101 -478 -45 -253 -83 -467 -85 -476
-2 -9 1 -24 6 -33 8 -14 29 -16 148 -16 89 0 141 4 146 11 7 13 174 934 174
966 0 35 -30 43 -153 43 -95 0 -118 -3 -135 -17z"/>
<path d="M7274 1890 c-12 -5 -24 -19 -27 -32 -24 -101 -168 -951 -163 -963 4
-12 29 -15 144 -15 100 0 143 4 150 13 6 7 49 230 97 497 81 455 85 485 69
497 -20 15 -235 17 -270 3z"/>
</g>
</svg>
